<?xml version="1.0" encoding="iso-8859-1"?>
<!-- Generator: Adobe Illustrator 19.0.0, SVG Export Plug-In . SVG Version: 6.00 Build 0)  -->
<svg version="1.1" id="Capa_1" xmlns="http://www.w3.org/2000/svg" xmlns:xlink="http://www.w3.org/1999/xlink" x="0px" y="0px"
	 viewBox="0 0 512 512" style="enable-background:new 0 0 512 512;" xml:space="preserve">
<path style="fill:#01579B;" d="M426.667,283.584v-13.163l68.693-85.888c10.758-13.467,16.624-30.188,16.64-47.424
	c-0.012-16.808-13.635-30.431-30.443-30.443H406.72c-11.557-0.039-22.002,6.88-26.475,17.536
	c-14.472,39.807-33.515,77.8-56.747,113.216c-7.151,5.611-17.003,6.287-24.853,1.707v-109.12
	c-0.07-12.852-10.465-23.257-23.317-23.339h-93.995c-5.891-0.011-10.675,4.757-10.686,10.648c-0.005,2.84,1.123,5.565,3.134,7.571
	l5.845,5.845c7.939,7.892,12.394,18.63,12.373,29.824v81.067c-1,1.021-2.288,1.713-3.691,1.984
	c-3.958-0.611-7.552-2.662-10.091-5.76c-27.453-39.826-51.761-81.731-72.704-125.333c-1.817-3.586-5.495-5.845-9.515-5.845H27.733
	C12.417,106.667,0,119.083,0,134.4c0,0,0,0,0,0v5.44c-0.018,22.5,6.255,44.557,18.112,63.68
	c57.216,92.053,135.68,201.813,184.555,201.813h69.781c14.47-0.023,26.195-11.748,26.219-26.219v-18.261
	c-0.005-10.769,8.721-19.503,19.49-19.507c5.182-0.002,10.151,2.058,13.811,5.726l44.288,44.288
	c8.95,8.978,21.115,14.008,33.792,13.973h76.117c14.245-0.021,25.775-11.585,25.754-25.83c-0.01-6.818-2.719-13.355-7.535-18.181
	L426.667,283.584z"/>
<g>
</g>
<g>
</g>
<g>
</g>
<g>
</g>
<g>
</g>
<g>
</g>
<g>
</g>
<g>
</g>
<g>
</g>
<g>
</g>
<g>
</g>
<g>
</g>
<g>
</g>
<g>
</g>
<g>
</g>
</svg>
